<svg id="visual" viewBox="0 0 2560 1440"  xmlns="http://www.w3.org/2000/svg" xmlns:xlink="http://www.w3.org/1999/xlink" version="1.1"><rect ></rect><g><g transform="translate(997 1170)"><path d="M0 -361.2L312.8 180.6L-312.8 180.6Z" stroke="#297EA6" fill="none" stroke-width="2"></path></g><g transform="translate(2436 730)"><path d="M0 -290L251.1 145L-251.1 145Z" stroke="#297EA6" fill="none" stroke-width="2"></path></g><g transform="translate(163 504)"><path d="M0 -270L233.8 135L-233.8 135Z" stroke="#297EA6" fill="none" stroke-width="2"></path></g><g transform="translate(2039 83)"><path d="M0 -147L127.3 73.5L-127.3 73.5Z" stroke="#297EA6" fill="none" stroke-width="2"></path></g><g transform="translate(2006 1434)"><path d="M0 -206L178.4 103L-178.4 103Z" stroke="#297EA6" fill="none" stroke-width="2"></path></g><g transform="translate(1140 50)"><path d="M0 -205L177.5 102.5L-177.5 102.5Z" stroke="#297EA6" fill="none" stroke-width="2"></path></g><g transform="translate(1586 708)"><path d="M0 -264L228.6 132L-228.6 132Z" stroke="#297EA6" fill="none" stroke-width="2"></path></g><g transform="translate(262 1248)"><path d="M0 -322L278.9 161L-278.9 161Z" stroke="#297EA6" fill="none" stroke-width="2"></path></g></g></svg>